<svg version="1.1" xmlns="http://www.w3.org/2000/svg" xmlns:xlink="http://www.w3.org/1999/xlink" width="101.01234" height="192.8811" viewBox="0,0,101.01234,192.8811"><g transform="translate(-189.49383,-83.55945)"><g data-paper-data="{&quot;isPaintingLayer&quot;:true}" fill-rule="nonzero" stroke="none" stroke-width="0" stroke-linecap="butt" stroke-linejoin="miter" stroke-miterlimit="10" stroke-dasharray="" stroke-dashoffset="0" style="mix-blend-mode: normal"><g><path d="M278.40918,111.21869l-23.43164,42.28725l-10.12668,-5.61124l23.43164,-42.28725z" fill="#f2d6aa"></path><path d="M263.08129,135.89333l0.08171,3.81212l-12.23427,0.26221l-0.08171,-3.81212z" fill="#cca78f"></path><path d="M266.0256,133.72076l-1.43822,2.29251l-9.77691,-6.1335l1.43821,-2.29251z" fill="#cca78f"></path><path d="M258.15195,125.95148l2.7788,-0.55822l1.25878,6.2659l-2.7788,0.55822z" fill="#cca78f"></path><path d="M273.91366,118.85909l-1.05396,3.01575l-11.05772,-3.86445l1.05395,-3.01575z" fill="#cca78f"></path><path d="M271.14102,120.7l-1.37338,1.79341l-4.63813,-3.55184l1.37338,-1.79341z" fill="#cca78f"></path></g><g><path d="M249.58986,156.07409l-25.87135,-29.04193l10.91108,-9.71988l25.87135,29.04194z" fill="#f2d6aa"></path><path d="M230.08155,133.86832l-3.3549,-3.0685l9.90037,-10.82446l3.3549,3.06849z" fill="#cca78f"></path><path d="M226.91221,126.91715l-0.20958,-3.27349l7.39176,-0.4732l0.20958,3.27349z" fill="#cca78f"></path><path d="M235.16229,139.96004l-2.53924,-3.0565l11.23261,-9.3317l2.53924,3.05649z" fill="#cca78f"></path><path d="M253.14681,137.54087l2.06646,3.29378l-12.64814,7.93516l-2.06646,-3.29378z" data-paper-data="{&quot;index&quot;:null}" fill="#cca78f"></path><path d="M249.33375,141.19593l2.4675,1.39647l-5.26002,9.29422l-2.4675,-1.39647z" data-paper-data="{&quot;index&quot;:null}" fill="#cca78f"></path><path d="M236.45302,138.55864l-0.96439,-2.58621l5.75889,-2.14746l0.96438,2.5862z" fill="#cca78f"></path></g><path d="M204.67453,217.24391l5.80972,-59.84109l23.55292,2.28664l-5.80972,59.84108z" fill="#243328"></path><g><path d="M194.65713,254.89247l20.42135,-56.58666l15.55707,5.61434l-20.42136,56.58666z" fill="#243328"></path><path d="M189.49383,262.30526l5.31259,-10.99755l29.26134,14.13529l-5.31259,10.99755z" fill="#3d444d"></path></g><g><path d="M208.81712,171.94083l6.72315,-21.79339l18.84592,5.81386l-6.72315,21.79339z" fill="#2d4033"></path><path d="M226.64232,112.97595l3.85755,-12.5044l9.97373,3.07685l-3.85755,12.5044z" fill="#f2d6aa"></path><path d="M229.47184,114.8421l8.75774,-4.20591l10.16952,21.17541l-8.75773,4.20592z" fill="#2d4033"></path><path d="M216.75335,147.39783l8.02445,-39.86007l15.11934,3.04374l-8.02447,39.86008z" fill="#2d4033"></path><path d="M223.07076,145.30472l13.7183,-20.97367l11.51734,7.53318l-13.7183,20.97367z" fill="#2d4033"></path><path d="M214.09605,151.92778l1.99001,-6.45069l20.54296,6.33739l-1.99001,6.45069z" fill="#99681f"></path></g><path d="M266.91367,189.38839l-59.07452,-11.17627l4.39887,-23.25123l59.07453,11.17627z" fill="#2d4032"></path><g><path d="M230.20706,219.26117l26.30711,-54.10191l14.87395,7.23248l-26.30711,54.10191z" fill="#2d4032"></path><path d="M224.28674,226.08461l6.4489,-10.37215l27.5973,17.1587l-6.44891,10.37214z" fill="#3d444d"></path></g><g><path d="M228.45223,102.29064l9.33507,-15.43248l15.23958,9.2184l-9.33507,15.43248z" fill="#ffe2b3"></path><path d="M245.9528,107.1038l0.55383,-5.29349l2.8428,0.29742l-0.55383,5.29349z" fill="#ffe2b3"></path><path d="M237.18734,107.42424l10.78957,-13.97646l2.15312,1.66217l-10.78957,13.97645z" fill="#cca78f"></path><g><path d="M242.59523,99.53221l1.39556,-2.02232l4.55682,3.14454l-1.39556,2.02231z" fill="#ffffff"></path><path d="M245.3451,100.80849l0.75485,-1.61884l1.61883,0.75485l-0.75485,1.61883z" fill="#b37924"></path><path d="M246.06272,100.54725l0.29843,-0.64001l0.64,0.29843l-0.29843,0.64001z" fill="#000000"></path></g><g fill="#0f4d3a"><path d="M234.74909,97.84037l-3.27627,-10.07307l11.70253,-3.80627l3.27627,10.07307z"></path><path d="M238.60384,88.05832l3.6026,-4.49887l13.13182,10.5157l-3.6026,4.49885z"></path><path d="M253.11722,100.10712l0.18268,-6.34213l2.00759,0.05785l-0.18268,6.34212z"></path><path d="M249.80795,101.34119l2.26122,-6.6076l1.90023,0.65027l-2.26122,6.60761z"></path><path d="M247.6587,99.36241l2.06856,-4.22202l1.76259,0.86358l-2.06856,4.22201z"></path><path d="M245.15636,97.73609l3.73627,-3.42223l1.29489,1.41372l-3.73626,3.42223z"></path><path d="M243.92461,95.97949l2.45691,-3.40568l1.55476,1.12161l-2.45691,3.40569z"></path><path d="M227.97423,95.22879l3.72279,-5.47242l1.54737,1.05266l-3.72279,5.47241z"></path><path d="M241.20898,97.05755l1.3499,-3.14603l1.63594,0.70193l-1.3499,3.14604z"></path><path d="M237.31007,98.46669l2.79868,-4.65535l1.60397,0.96423l-2.79868,4.65536z"></path><path d="M229.77446,98.12247l1.99307,-9.89995l5.29305,1.06561l-1.99308,9.89995z"></path><path d="M233.94104,100.26821l1.9727,-4.59361l1.74559,0.74964l-1.97271,4.59363z"></path><path d="M228.4353,99.81217l2.01761,-3.90947l1.82146,0.94l-2.01761,3.90947z"></path><path d="M231.08543,99.68575l1.8805,-2.33692l1.55794,1.25367l-1.8805,2.33693z"></path></g><path d="M236.37351,102.23425l1.59375,-1.13491l3.15561,4.4314l-1.59375,1.13491z" fill="#cca78f"></path><path d="M240.02407,101.37205l0.76676,-1.6958l2.6524,1.19934l-0.76676,1.6958z" fill="#cca78f"></path><path d="M239.9788,107.80726l0.36553,-1.5767l1.96023,0.45446l-0.36553,1.5767z" fill="#cca78f"></path><path d="M242.50303,104.56409l0.45101,-1.3713l2.78411,0.91572l-0.45101,1.37129z" fill="#cca78f"></path></g><g><path d="M290.50617,114.7702l-35.0787,33.26767l-7.96673,-8.40042l35.0787,-33.26767z" fill="#ffe2b3"></path><path d="M268.45908,133.68335l-1.07012,3.65977l-11.7453,-3.43432l1.07012,-3.65977z" fill="#cca78f"></path><path d="M271.92095,132.49833l-2.06183,1.75297l-7.47593,-8.7931l2.06183,-1.75297z" fill="#cca78f"></path><path d="M266.75255,122.71854l2.8179,0.30453l-0.68667,6.35409l-2.8179,-0.30452z" fill="#cca78f"></path><path d="M283.91845,120.70208l-1.91322,2.55834l-9.38058,-7.0151l1.91322,-2.55834z" fill="#cca78f"></path><path d="M280.72013,121.62256l-1.8497,1.29657l-3.35318,-4.78373l1.8497,-1.29657z" fill="#cca78f"></path></g><g><path d="M256.80562,149.02885l-34.2327,-18.46301l6.93655,-12.86124l34.2327,18.463z" fill="#ffe2b3"></path><path d="M230.88771,134.81857l-4.201,-1.73858l5.60945,-13.55436l4.201,1.73858z" fill="#cca78f"></path><path d="M225.53542,129.36729l-1.31468,-3.00521l6.78598,-2.96863l1.31468,3.00521z" fill="#cca78f"></path><path d="M237.74309,138.8094l-3.43025,-2.00579l7.37133,-12.60619l3.43025,2.00578z" fill="#cca78f"></path><path d="M253.82078,130.39496l3.0669,2.39027l-9.1786,11.7769l-3.0669,-2.39028z" data-paper-data="{&quot;index&quot;:null}" fill="#cca78f"></path><path d="M251.48486,135.13231l2.79601,0.47002l-1.77045,10.53165l-2.79601,-0.47002z" data-paper-data="{&quot;index&quot;:null}" fill="#cca78f"></path><path d="M238.47775,137.05149l-1.78946,-2.10149l4.67957,-3.98472l1.78946,2.10149z" fill="#cca78f"></path></g></g></g></svg>