<svg version="1.1" xmlns="http://www.w3.org/2000/svg" xmlns:xlink="http://www.w3.org/1999/xlink" width="118.4006" height="181.24664" viewBox="0,0,118.4006,181.24664"><g transform="translate(-180.7997,-89.37668)"><g data-paper-data="{&quot;isPaintingLayer&quot;:true}" fill-rule="nonzero" stroke="none" stroke-width="0" stroke-linecap="butt" stroke-linejoin="miter" stroke-miterlimit="10" stroke-dasharray="" stroke-dashoffset="0" style="mix-blend-mode: normal"><path d="M220.57736,135.73343l-20.30175,37.42593l-14.53917,-7.87195l20.30175,-37.42593z" fill="#110b26"></path><g><path d="M180.84581,208.67892l2.49353,-11.66763l11.25852,2.40314l-2.49353,11.66763z" fill="#ffebcc"></path><path d="M180.79971,201.07407l10.09632,-47.24245l13.89939,2.96683l-10.09632,47.24245z" fill="#110b26"></path></g><path d="M250.44519,184.73146l-44.70904,11.37279l-4.92574,-19.25954l44.70904,-11.3728z" fill="#110b26"></path><g><path d="M286.36009,202.56801l-8.58108,-4.97414l12.84023,-22.15116l8.58107,4.97415z" fill="#b30000"></path><path d="M278.95685,200.32361l-50.1303,-18.72705l6.16475,-16.44874l50.1303,18.72705z" fill="#110b26"></path></g><path d="M199.27599,220.02042l4.1532,-45.94549l19.80103,1.76399l-4.1532,45.9455z" fill="#160e33"></path><g><path d="M188.47729,259.74321l4.21481,-8.97844l23.1769,10.88011l-4.21482,8.97844z" fill="#b30000"></path><path d="M190.07423,252.17387l14.32967,-51.55977l16.91951,4.7218l-14.32967,51.55977z" fill="#160e33"></path></g><path d="M201.94981,197.59173l-2.92647,-46.57473l20.32526,-1.27712l2.92647,46.57473z" fill="#160f33"></path><g><path d="M208.73427,121.62776l2.11777,-11.88885l12.29185,2.18956l-2.11777,11.88885z" fill="#f2dfc2"></path><path d="M197.90571,158.40887l6.53081,-36.88261l21.67801,3.88164l-6.53081,36.88262z" fill="#160f33"></path><path d="M203.28912,123.97508l1.17768,-6.65095l23.06172,4.1294l-1.17769,6.65095z" fill="#cc0000"></path></g><g><path d="M208.52407,112.1983l7.86411,-16.5866l16.37926,7.7658l-7.86411,16.5866z" fill="#ffebcc"></path><path d="M226.73931,115.27102l0.01605,-5.41686l2.90906,0.00863l-0.01605,5.41686z" fill="#ffebcc"></path><path d="M221.33916,107.49654l0.43211,-0.30107l1.85366,2.66047l-0.43211,0.30107z" fill="#e6d3b8"></path><path d="M210.25648,107.63943l3.30693,-11.67088l9.00811,2.55244l-3.30693,11.67088z" fill="#4d402e"></path><g fill="#f2c2c2"><path d="M213.03986,96.65796l1.89203,-3.99058l18.88873,8.95562l-1.89203,3.99058z"></path><path d="M210.87346,98.28682l3.65847,-4.3095l2.64855,2.24843l-3.65847,4.3095z"></path><path d="M214.49864,100.31672l0.67641,-3.8869l3.36477,0.58555l-0.67641,3.88689z"></path><path d="M216.21342,101.30526l2.75164,-3.1477l2.7487,2.40284l-2.75164,3.1477z"></path><path d="M219.40437,101.89383l3.23032,-3.26513l2.46978,2.44344l-3.23032,3.26513z"></path><path d="M222.35397,105.3509l1.04952,-4.04698l3.19198,0.82779l-1.04953,4.04698z"></path><path d="M225.39316,104.2759l1.23069,-3.12269l3.17748,1.25228l-1.23069,3.12269z"></path><path d="M227.53907,106.07631l2.64477,-3.5369l2.07499,1.55161l-2.64477,3.53689z"></path><path d="M230.26611,108.1899l0.70458,-7.20853l2.81309,0.27496l-0.70458,7.20853z"></path><path d="M211.75181,92.5478l2.25905,-2.23782l4.89005,4.93644l-2.25905,2.23782z"></path><path d="M215.59038,95.59554l0.53503,-6.21886l3.5201,0.30284l-0.53503,6.21886z"></path><path d="M217.15276,94.44716l2.6866,-3.20337l2.7522,2.30821l-2.6866,3.20337z"></path><path d="M220.07086,94.97173l2.71575,-4.48224l2.97138,1.80034l-2.71575,4.48224z"></path><path d="M224.38937,97.77249l3.61319,-5.51731l2.46309,1.61304l-3.61319,5.51731z"></path><path d="M226.69245,99.72086l0.60173,-3.66065l3.07959,0.5062l-0.60171,3.66065z"></path><path d="M229.29954,100.88197l5.15164,-3.52434l1.79542,2.62442l-5.15164,3.52434z"></path><path d="M228.55716,101.61129l2.41639,-5.88266l2.12429,0.87259l-2.4164,5.88265z"></path><path d="M222.40234,97.72191l2.35178,-4.96023l2.38349,1.13007l-2.35178,4.96023z"></path></g><g><path d="M223.10273,107.98995l1.79887,-2.5963l4.09112,2.83459l-1.79886,2.59628z" fill="#ffffff"></path><path d="M226.02107,109.06707l0.50353,-1.59688l1.46913,0.46324l-0.50354,1.59689z" fill="#99876b"></path><path d="M226.59149,108.73925l0.21233,-0.67337l0.61949,0.19535l-0.21233,0.67337z" fill="#000000"></path></g></g><path d="M227.33425,171.23178l-25.75175,-33.90734l13.15874,-10.01011l25.75175,33.90734z" fill="#1c1240"></path><g><path d="M276.6802,145.78099l-10.88677,4.88157l-4.71278,-10.50329l10.88677,-4.88157z" fill="#ffebcc"></path><path d="M270.57177,150.3112l-44.08068,19.76558l-5.81824,-12.96701l44.08068,-19.76558z" fill="#1c1240"></path></g></g></g></svg>