<svg version="1.1" xmlns="http://www.w3.org/2000/svg" xmlns:xlink="http://www.w3.org/1999/xlink" width="99.55587" height="190.44766" viewBox="0,0,99.55587,190.44766"><g transform="translate(-188.249,-85.37665)"><g data-paper-data="{&quot;isPaintingLayer&quot;:true}" fill-rule="nonzero" stroke="none" stroke-width="0" stroke-linecap="butt" stroke-linejoin="miter" stroke-miterlimit="10" stroke-dasharray="" stroke-dashoffset="0" style="mix-blend-mode: normal"><g><path d="M188.24901,151.81221l10.14548,-5.08376l4.456,8.89263l-10.14548,5.08376z" fill="#f2dfc2"></path><path d="M195.19255,145.67444l35.22667,-17.65163l5.98234,11.93876l-35.22665,17.65164z" fill="#110b26"></path></g><path d="M256.68146,138.81532l-34.38964,3.99384l-1.26472,-10.89005l34.38967,-3.99385z" fill="#110b26"></path><g><path d="M209.61764,226.87403l47.9759,-21.74314l5.41027,11.93765l-47.9759,21.74314z" fill="#523659"></path><path d="M200.63222,227.36672l9.29534,-2.57103l8.12749,29.38419l-9.29535,2.57104z" fill="#3d444d"></path><path d="M198.26001,227.80449l2.81511,-0.93873l9.91263,29.72614l-2.81511,0.93874z" fill="#99620f"></path><path d="M206.3295,226.19999l9.13826,-4.14155l7.1748,15.83108l-9.13826,4.14155z" fill="#3d444d"></path></g><path d="M248.49306,223.65549l-18.53667,-39.92449l15.25204,-7.08142l18.53667,39.92449z" fill="#523659"></path><g><path d="M204.06399,248.1176l32.02575,-41.81869l10.40559,7.96884l-32.02575,41.81869z" fill="#5d3d66"></path><path d="M196.37579,252.79437l6.98012,-6.65519l21.03821,22.06539l-6.98013,6.6552z" fill="#3d444d"></path><path d="M194.49133,254.30034l2.03835,-2.15665l22.77329,21.52399l-2.03834,2.15664z" fill="#99620f"></path><path d="M200.84719,249.0759l6.10014,-7.96547l13.79932,10.56783l-6.10014,7.96547z" fill="#3d444d"></path></g><path d="M225.59957,218.03576l13.56996,-41.87396l15.9968,5.18402l-13.56996,41.87396z" fill="#5d3d66"></path><g><path d="M241.51051,203.04085l-1.30062,-33.60646l17.19859,-0.6656l1.30061,33.60646z" fill="#1c1240"></path><path d="M225.79297,199.14473l7.8094,-32.71236l16.74103,3.99656l-7.80941,32.71236z" data-paper-data="{&quot;index&quot;:null}" fill="#1c1240"></path><path d="M245.19688,176.43854l-3.53099,-18.22851l13.421,-2.59974l3.53099,18.22851z" fill="#160f33"></path><path d="M231.38062,171.16564l7.00752,-17.19422l12.65948,5.15938l-7.00751,17.19422z" data-paper-data="{&quot;index&quot;:null}" fill="#160f33"></path></g><g><path d="M245.64444,119.77182l2.11766,-9.88723l9.68764,2.07491l-2.11766,9.88723z" fill="#f2dfc2"></path><path d="M237.00728,160.46637l6.38332,-43.96907l15.09143,2.19094l-6.38332,43.96907z" fill="#160f33"></path><path d="M257.95901,141.97654l-9.43808,-14.70739l8.46368,-5.43135l9.43808,14.70739z" fill="#160f33"></path><path d="M244.77464,159.24762l12.66266,-26.91125l9.07293,4.26913l-12.66266,26.91125z" fill="#160f33"></path></g><g><g><path d="M246.20106,98.98915l-3.52349,-4.89994l4.6892,-3.37195l3.52349,4.89994z" fill="#002966"></path><path d="M231.69816,114.42477l3.15123,-15.24792l5.57484,1.15213l-3.15122,15.24793z" fill="#0f4d3b"></path><path d="M232.74548,122.75262l0.09946,-10.76454l3.28281,0.03033l-0.09946,10.76454z" fill="#0f4d3b"></path><path d="M237.12259,119.17858l-2.41873,-5.19016l2.49127,-1.16099l2.41873,5.19016z" fill="#0f4d3b"></path><path d="M229.73184,110.83411l4.26118,-5.56631l1.7711,1.35584l-4.2612,5.56632z" fill="#0f4d3b"></path><path d="M232.72032,98.9915l9.47402,-13.61484l6.63746,4.61875l-9.47403,13.61483z" fill="#0f4d3b"></path></g><path d="M245.43977,112.99238l3.8139,-16.75106l16.54167,3.76623l-3.8139,16.75106z" fill="#ffebcc"></path><path d="M262.7051,112.09803l-1.08606,-4.95195l2.65938,-0.58326l1.08606,4.95195z" fill="#ffebcc"></path><g><path d="M257.30204,106.34231l0.65552,-2.24675l5.06249,1.47706l-0.65552,2.24675z" fill="#ffffff"></path><path d="M260.17076,106.67192l0.19721,-1.6899l1.6899,0.19721l-0.19721,1.6899z" fill="#b37924"></path><path d="M260.74127,106.22063l0.07796,-0.6681l0.6681,0.07796l-0.07796,0.6681z" fill="#000000"></path></g><g><path d="M257.90702,107.60084l0.37833,-2.551l5.17188,0.76701l-0.37833,2.551z" fill-opacity="0.5" fill="#ffffff"></path><path d="M263.16506,108.67435l-5.22086,-0.77429l0.09288,-0.62621l5.22086,0.77429z" fill="#af3dcc"></path><path d="M264.70295,106.97387l-1.6914,-0.25085l0.09288,-0.62621l1.6914,0.25085z" fill="#af3dcc"></path><path d="M258.44772,106.0462l-6.12944,-0.90902l0.09288,-0.62621l6.12944,0.90902z" fill="#af3dcc"></path><path d="M257.56444,107.8766l0.46519,-3.13667l0.62621,0.09288l-0.46519,3.13667z" fill="#af3dcc"></path><path d="M262.7014,108.63844l0.46519,-3.13667l0.62621,0.09288l-0.46519,3.13667z" fill="#af3dcc"></path></g><g fill="#0f4d3a"><path d="M249.7988,107.08124l-5.98167,-8.12511l9.43946,-6.9493l5.98167,8.12511z"></path><path d="M250.35163,97.08162l1.90858,-5.14743l15.02491,5.57098l-1.90859,5.14742z"></path><path d="M245.21671,110.73675l-1.10189,-11.66186l5.02757,-0.47504l1.10189,11.66186z"></path><path d="M253.44144,107.70807l1.38854,-8.89893l2.67483,0.41736l-1.38852,8.89894z"></path><path d="M253.59734,109.2742l0.62705,-2.45341l1.22582,0.3121l-0.62704,2.4534z"></path><path d="M255.67114,110.92039l-0.6249,-4.10722l1.29085,-0.1964l0.62489,4.10723z"></path><path d="M265.99672,102.87665l-0.97375,-4.88639l2.04797,-0.40811l0.97375,4.88638z"></path><path d="M264.69757,104.93104l1.79987,-3.27482l1.18793,0.65289l-1.79987,3.27482z"></path><path d="M262.90882,104.69073l1.37855,-3.21492l1.2926,0.55427l-1.37855,3.21493z"></path><path d="M261.14099,104.44895l0.85502,-2.87294l1.29282,0.38476l-0.85502,2.87294z"></path><path d="M261.70774,102.78208l0.22275,-3.19955l1.73434,0.12074l-0.22276,3.19954z"></path><path d="M263.73998,102.88426l0.41004,-2.16085l1.81637,0.34468l-0.41004,2.16085z"></path><path d="M259.61306,103.32866l0.52966,-2.9463l1.30661,0.2349l-0.52967,2.94629z"></path><path d="M257.6978,101.88088l0.75658,-2.05151l1.41652,0.52239l-0.75658,2.05151z"></path></g></g><path d="M253.76841,127.16147l10.03976,33.1331l-10.49214,3.17927l-10.03976,-33.1331z" fill="#1c1240"></path><g><path d="M279.95074,195.16677l-6.96291,-8.96065l7.85415,-6.10309l6.9629,8.96064z" fill="#ffebcc"></path><path d="M272.57786,189.55204l-24.17629,-31.11277l10.5445,-8.19363l24.17629,31.11277z" fill="#1c1240"></path></g></g></g></svg>